<mxfile host="app.diagrams.net" modified="2024-07-17T06:15:48.464Z" agent="Mozilla/5.0 (Windows NT 10.0; Win64; x64) AppleWebKit/537.36 (KHTML, like Gecko) Chrome/126.0.0.0 Safari/537.36 Edg/126.0.0.0" version="24.7.0" etag="YRt8wBf2HRKOjkJrATix" type="github">
  <diagram name="Page-1" id="3yYdW2Nu5qWFP56MfS_h">
    <mxGraphModel>
      <root>
        <mxCell id="0" />
        <mxCell id="1" parent="0" />
      </root>
    </mxGraphModel>
  </diagram>
</mxfile>
